<svg width="262" height="54" viewBox="0 0 262 54" fill="none" xmlns="http://www.w3.org/2000/svg">
<path d="M261.418 2.55384C261.454 2.00272 261.036 1.52692 260.485 1.49111L251.504 0.907569C250.953 0.87176 250.477 1.2895 250.441 1.84063C250.405 2.39175 250.823 2.86755 251.374 2.90336L259.357 3.42206L258.839 11.4052C258.803 11.9564 259.221 12.4322 259.772 12.468C260.323 12.5038 260.799 12.086 260.835 11.5349L261.418 2.55384ZM0.516807 23.9999C25.0804 37.1287 67.5329 51.822 115.173 53.3054C162.83 54.7894 215.735 43.0521 261.08 3.24047L259.76 1.73754C214.885 41.1372 162.517 52.7786 115.235 51.3064C67.9351 49.8335 25.7816 35.2357 1.45956 22.2361L0.516807 23.9999Z" fill="#393939"/>
</svg>
