<svg width="262" height="50" viewBox="0 0 262 50" fill="none" xmlns="http://www.w3.org/2000/svg">
<path d="M262.002 47.1719C262.055 47.7216 261.653 48.2102 261.103 48.2632L252.145 49.1266C251.595 49.1796 251.106 48.7769 251.053 48.2272C251 47.6774 251.403 47.1888 251.953 47.1359L259.916 46.3683L259.148 38.4052C259.095 37.8555 259.498 37.3669 260.048 37.3139C260.597 37.2609 261.086 37.6636 261.139 38.2134L262.002 47.1719ZM0.559149 33.8759C24.7012 19.9872 66.6747 3.97655 114.245 1.00759C161.833 -1.9625 215.079 8.11853 261.643 46.4961L260.371 48.0395C214.288 10.059 161.582 0.0570526 114.369 3.00371C67.1386 5.95149 25.4611 21.8573 1.55647 35.6094L0.559149 33.8759Z" fill="#393939"/>
</svg>
