<?xml version="1.0" encoding="UTF-8"?>
<svg id="b" data-name="Layer 2" xmlns="http://www.w3.org/2000/svg" width="1000" height="1055.845" viewBox="0 0 1000 1055.845">
  <g id="c" data-name="Layer 1">
    <g>
      <g>
        <path d="M197.291,680.511c-84.138,0-152.589-68.451-152.589-152.589s68.451-152.589,152.589-152.589,152.589,68.451,152.589,152.589-68.451,152.589-152.589,152.589Z" fill="#a7ff4e" stroke-width="0"/>
        <path d="M197.292,420.037c28.817,0,55.91,11.222,76.287,31.599,20.377,20.377,31.599,47.469,31.599,76.287s-11.222,55.91-31.599,76.287c-20.377,20.377-47.469,31.599-76.287,31.599s-55.91-11.222-76.287-31.599c-20.377-20.377-31.599-47.469-31.599-76.287s11.222-55.91,31.599-76.287c20.376-20.377,47.469-31.599,76.287-31.599M197.292,330.631C88.33,330.631,0,418.962,0,527.923s88.33,197.292,197.292,197.292,197.292-88.331,197.292-197.292-88.331-197.292-197.292-197.292h0Z" fill="#000" stroke-width="0"/>
      </g>
      <g>
        <path d="M408.125,349.88c-84.138,0-152.589-68.45-152.589-152.588S323.987,44.703,408.125,44.703s152.589,68.451,152.589,152.589-68.451,152.588-152.589,152.588Z" fill="#0c00ff" stroke-width="0"/>
        <path d="M408.125,89.406c28.817,0,55.91,11.222,76.287,31.599,20.377,20.377,31.599,47.469,31.599,76.287s-11.222,55.91-31.599,76.287c-20.377,20.377-47.469,31.599-76.287,31.599s-55.91-11.222-76.287-31.599c-20.377-20.377-31.599-47.469-31.599-76.287s11.222-55.91,31.599-76.287c20.377-20.377,47.469-31.599,76.287-31.599M408.125,0c-108.961,0-197.292,88.331-197.292,197.292s88.331,197.292,197.292,197.292,197.292-88.331,197.292-197.292S517.086,0,408.125,0h0Z" fill="#000" stroke-width="0"/>
      </g>
      <g>
        <path d="M408.125,1011.142c-84.138,0-152.589-68.451-152.589-152.589s68.451-152.588,152.589-152.588,152.589,68.451,152.589,152.588-68.451,152.589-152.589,152.589Z" fill="#932cff" stroke-width="0"/>
        <path d="M408.125,750.668c28.817,0,55.91,11.222,76.286,31.599,20.377,20.377,31.599,47.469,31.599,76.287s-11.222,55.909-31.599,76.286c-20.376,20.377-47.469,31.599-76.286,31.599s-55.91-11.222-76.286-31.599c-20.377-20.377-31.599-47.469-31.599-76.286s11.222-55.91,31.599-76.287c20.376-20.377,47.469-31.599,76.286-31.599M408.125,661.262c-108.961,0-197.292,88.331-197.292,197.292s88.331,197.292,197.292,197.292,197.292-88.33,197.292-197.292-88.331-197.292-197.292-197.292h0Z" fill="#000" stroke-width="0"/>
      </g>
      <g>
        <path d="M802.708,369.96c-84.138,0-152.589-68.451-152.589-152.589s68.451-152.588,152.589-152.588,152.589,68.45,152.589,152.588-68.451,152.589-152.589,152.589Z" fill="#f7194e" stroke-width="0"/>
        <path d="M802.708,109.485c28.817,0,55.91,11.222,76.287,31.599s31.599,47.469,31.599,76.287-11.222,55.91-31.599,76.287c-20.377,20.377-47.47,31.599-76.287,31.599s-55.91-11.222-76.287-31.599c-20.377-20.377-31.599-47.469-31.599-76.287s11.222-55.91,31.599-76.287c20.377-20.377,47.469-31.599,76.287-31.599M802.708,20.079c-108.961,0-197.292,88.331-197.292,197.292s88.331,197.292,197.292,197.292,197.292-88.33,197.292-197.292S911.669,20.079,802.708,20.079h0Z" fill="#000" stroke-width="0"/>
      </g>
      <g>
        <path d="M802.708,991.063c-84.138,0-152.589-68.451-152.589-152.589s68.451-152.589,152.589-152.589,152.589,68.451,152.589,152.589-68.451,152.589-152.589,152.589Z" fill="#4db510" stroke-width="0"/>
        <path d="M802.708,730.588c28.817,0,55.91,11.222,76.287,31.599s31.599,47.469,31.599,76.287-11.222,55.91-31.599,76.287-47.47,31.599-76.287,31.599-55.91-11.222-76.287-31.599c-20.377-20.377-31.599-47.469-31.599-76.287s11.222-55.91,31.599-76.287c20.377-20.377,47.469-31.599,76.287-31.599M802.708,641.183c-108.961,0-197.292,88.331-197.292,197.292s88.331,197.292,197.292,197.292,197.292-88.331,197.292-197.292-88.331-197.292-197.292-197.292h0Z" fill="#000" stroke-width="0"/>
      </g>
    </g>
  </g>
</svg>