<svg xmlns="http://www.w3.org/2000/svg" width="24" height="25" viewBox="0 0 24 25" fill="none">
  <g clip-path="url(#clip0_391_1120)">
    <path d="M19.714 12.5001C19.2406 12.5001 18.8569 12.8838 18.8569 13.3572V21.9285C18.8569 22.4019 18.4731 22.7856 17.9997 22.7856H2.57139C2.098 22.7856 1.71425 22.4019 1.71425 21.9285V4.78587C1.71425 4.31247 2.098 3.92872 2.57139 3.92872H12.857C13.3304 3.92872 13.7141 3.54497 13.7141 3.07158C13.7141 2.59818 13.3304 2.21448 12.857 2.21448H2.57139C1.15125 2.21448 0 3.36573 0 4.78587V21.9285C0 23.3486 1.15125 24.4999 2.57139 24.4999H17.9998C19.4199 24.4999 20.5712 23.3486 20.5712 21.9285V13.3572C20.5712 12.8838 20.1874 12.5001 19.714 12.5001Z" fill="white"/>
    <path d="M23.0385 1.46142C22.7338 1.15665 22.372 0.914896 21.9739 0.749978C21.5757 0.585059 21.1489 0.500203 20.718 0.500258C20.2868 0.499005 19.8597 0.583369 19.4614 0.748457C19.0631 0.913545 18.7016 1.15607 18.3977 1.46197L7.10755 12.7512C7.0139 12.8456 6.94322 12.9602 6.90099 13.0863L5.18674 18.2291C5.03713 18.6783 5.27996 19.1636 5.7291 19.3132C5.81623 19.3422 5.90749 19.357 5.99929 19.3571C6.09132 19.357 6.18274 19.3422 6.27014 19.3134L11.4129 17.5992C11.5392 17.557 11.654 17.486 11.7481 17.3918L23.0382 6.10163C24.3196 4.82035 24.3198 2.74285 23.0385 1.46142ZM21.8262 4.89046L10.6835 16.0332L7.3544 17.1449L8.46266 13.82L19.6097 2.67736C20.2225 2.06574 21.2151 2.06675 21.8267 2.67956C22.1189 2.9723 22.2835 3.36863 22.2848 3.7822C22.2853 3.98805 22.245 4.19197 22.1663 4.38219C22.0876 4.5724 21.972 4.74515 21.8262 4.89046Z" fill="white"/>
  </g>
  <defs>
    <clipPath id="clip0_391_1120">
      <rect width="24" height="24" fill="white" transform="translate(0 0.5)"/>
    </clipPath>
  </defs>
</svg>