<svg width="70" height="70" viewBox="0 0 70 70" fill="none" xmlns="http://www.w3.org/2000/svg">
<g id="Frame">
<g id="Group">
<path id="Vector" d="M64.2799 6.93381C62.196 5.09588 59.7242 3.752 57.0487 3.00232C54.3732 2.25265 51.563 2.11653 48.8275 2.60411C45.9874 3.11229 43.2869 4.21585 40.9037 5.84224C38.5205 7.46863 36.5085 9.58101 35 12.0405C33.4915 9.58101 31.4795 7.46863 29.0963 5.84224C26.7131 4.21585 24.0127 3.11229 21.1725 2.60411C18.4371 2.11729 15.627 2.25378 12.9516 3.00341C10.2763 3.75305 7.80441 5.09652 5.72017 6.93381C0.642988 11.587 -1.16973 19.4511 0.746762 28.5115C0.753872 28.5455 0.776705 28.5708 0.786686 28.6035C0.835469 28.7513 0.910298 28.8891 1.00764 29.0105C1.02965 29.0371 1.03867 29.0699 1.06369 29.0949C1.09596 29.119 1.12946 29.1412 1.16419 29.1618C1.33806 29.3045 1.55037 29.3925 1.77426 29.4146C1.81295 29.4184 1.84973 29.4368 1.88842 29.4368C1.93012 29.431 1.97147 29.4229 2.0123 29.4126C2.05154 29.4144 2.09078 29.4142 2.12988 29.4117C2.16406 29.4044 2.18936 29.3818 2.22231 29.3718C2.29611 29.3486 2.36732 29.3178 2.43478 29.2799C2.50443 29.2435 2.57006 29.1999 2.63057 29.1497C2.65655 29.128 2.68882 29.1192 2.71316 29.0949L6.81726 24.9919L6.83093 24.9829C7.73059 24.0806 9.18822 24.0684 10.1029 24.9554C11.0176 25.8423 11.0503 27.2997 10.1761 28.2267L3.44464 34.9581C3.33458 35.0659 3.24696 35.1945 3.18686 35.3364C3.12675 35.4783 3.09534 35.6306 3.09444 35.7847C3.09354 35.9388 3.12317 36.0915 3.18162 36.2341C3.24007 36.3766 3.32618 36.5062 3.43497 36.6153C3.54377 36.7244 3.6731 36.8109 3.8155 36.8697C3.9579 36.9286 4.11054 36.9586 4.26462 36.9582C4.4187 36.9577 4.57116 36.9267 4.7132 36.867C4.85524 36.8073 4.98405 36.7201 5.09219 36.6103L11.7499 29.9527C11.7591 29.944 11.7712 29.9415 11.7804 29.9325C11.7978 29.9151 11.8088 29.8942 11.8259 29.8767L15.8722 25.8304C15.8825 25.8209 15.8961 25.818 15.9061 25.808C16.8283 24.9238 18.2835 24.9238 19.2057 25.808C20.11 26.7155 20.1147 28.1821 19.216 29.0952L19.2023 29.1042L6.77966 41.5281C6.56724 41.7482 6.44974 42.0429 6.45245 42.3487C6.45517 42.6546 6.57788 42.9472 6.79416 43.1634C7.01045 43.3797 7.30302 43.5024 7.60888 43.5051C7.91474 43.5079 8.20944 43.3904 8.42953 43.1779L19.2138 32.4063L19.242 32.378C20.1639 31.4913 21.6281 31.513 22.5234 32.4266C23.4187 33.3402 23.4106 34.8046 22.5055 35.7083L20.0322 38.182L20.0309 38.1831L20.0303 38.1838L11.016 47.1985C10.9076 47.3068 10.8217 47.4354 10.7631 47.577C10.7045 47.7185 10.6743 47.8702 10.6743 48.0234C10.6743 48.1767 10.7045 48.3284 10.7631 48.4699C10.8217 48.6114 10.9076 48.7401 11.016 48.8484C11.1243 48.9567 11.2529 49.0426 11.3945 49.1013C11.536 49.1599 11.6877 49.1901 11.8409 49.1901C11.9941 49.1901 12.1458 49.1599 12.2874 49.1013C12.4289 49.0426 12.5575 48.9567 12.6658 48.8484L21.6821 39.8314C22.5935 38.9203 24.071 38.9207 24.9821 39.8321C25.8933 40.7435 25.893 42.221 24.9814 43.1321C24.9765 43.1371 24.9751 43.144 24.9702 43.1491L15.928 52.1913C15.9221 52.1972 15.9206 52.2053 15.9149 52.2112C15.9088 52.2173 15.9006 52.2194 15.8949 52.2255C15.8523 52.2825 15.8153 52.3434 15.7844 52.4075C15.7392 52.468 15.6999 52.5327 15.6671 52.6007C15.6455 52.6728 15.6311 52.7469 15.6241 52.8219C15.5767 52.9629 15.5797 53.116 15.6327 53.2551C15.6428 53.3298 15.6603 53.4035 15.6848 53.4749C15.7211 53.5431 15.7639 53.6077 15.8129 53.6677C15.8457 53.729 15.8842 53.7871 15.9281 53.8411C15.934 53.8469 15.9421 53.8486 15.948 53.8542C15.9541 53.8601 15.9562 53.8683 15.9623 53.874C21.6604 58.9924 27.8312 63.5586 34.3919 67.5113C34.5751 67.6231 34.7856 67.6823 35.0003 67.6823C35.215 67.6823 35.4255 67.6231 35.6087 67.5113C42.1693 63.5586 48.3401 58.9923 54.0382 53.874C54.0445 53.8683 54.0464 53.8601 54.0525 53.8542C54.0584 53.8484 54.0665 53.8468 54.0723 53.8411C54.1161 53.7871 54.1547 53.729 54.1876 53.6677C54.2364 53.6078 54.2794 53.5431 54.3157 53.4749C54.3529 53.3312 54.3843 53.186 54.4096 53.0397C54.4055 52.9662 54.3943 52.8933 54.3763 52.8219C54.3694 52.7469 54.3549 52.6728 54.3332 52.6007C54.3004 52.5327 54.2611 52.468 54.2159 52.4075C54.185 52.3434 54.1479 52.2825 54.1053 52.2255C54.0996 52.2192 54.0914 52.2173 54.0853 52.2112C54.0796 52.2053 54.0781 52.1972 54.0722 52.1913L45.03 43.1491C45.0251 43.144 45.0237 43.1372 45.0188 43.1321C44.1073 42.221 44.1071 40.7435 45.0181 39.8321C45.9292 38.9207 47.4067 38.9204 48.3181 39.8314L57.3344 48.8484C57.5538 49.0639 57.8495 49.1841 58.1571 49.1827C58.4647 49.1813 58.7594 49.0585 58.9769 48.841C59.1944 48.6235 59.3172 48.3289 59.3186 48.0213C59.3199 47.7137 59.1998 47.418 58.9842 47.1985L49.97 38.1833L49.9695 38.1827L49.9681 38.1816L47.4949 35.7078C47.2051 35.4182 46.9967 35.0574 46.8906 34.6618C46.7844 34.2661 46.7844 33.8494 46.8903 33.4537C46.9963 33.058 47.2046 32.6972 47.4942 32.4075C47.7839 32.1178 48.1447 31.9095 48.5404 31.8034C48.9361 31.6974 49.3527 31.6973 49.7484 31.8033C50.1441 31.9092 50.5049 32.1175 50.7946 32.4071L50.8086 32.4164L61.5709 43.1777C61.7901 43.3946 62.0863 43.516 62.3946 43.5152C62.703 43.5144 62.9985 43.3915 63.2166 43.1734C63.4346 42.9554 63.5575 42.6598 63.5583 42.3515C63.559 42.0431 63.4376 41.7469 63.2207 41.5278L52.4534 30.7707L52.4443 30.7572C52.437 30.7497 52.4278 30.7449 52.4203 30.7375L50.7979 29.1039L50.7945 29.1016C49.8843 28.191 49.8844 26.715 50.795 25.8049C51.7056 24.8947 53.1816 24.8948 54.0918 25.8054C54.1017 25.8154 54.1154 25.8184 54.1255 25.828L58.0613 29.7638C58.1084 29.8198 58.1581 29.8716 58.2202 29.9339L58.2218 29.9358L58.2221 29.9359L58.2229 29.9369L64.9077 36.6102C65.0526 36.7552 65.2332 36.8595 65.4312 36.9126C65.6293 36.9656 65.8378 36.9655 66.0358 36.9123C66.2338 36.859 66.4142 36.7545 66.559 36.6093C66.7037 36.4641 66.8076 36.2833 66.8602 36.0852C66.9129 35.887 66.9124 35.6786 66.8589 35.4807C66.8054 35.2828 66.7006 35.1025 66.5553 34.958L59.8602 28.2778C59.84 28.2518 59.817 28.2281 59.795 28.2036L59.7895 28.1947C58.949 27.274 58.9852 25.8538 59.8716 24.9771C60.7934 24.0952 62.2461 24.0952 63.1678 24.9771L67.2866 29.0949C67.311 29.1192 67.3434 29.128 67.3692 29.1497C67.491 29.2475 67.6293 29.3227 67.7776 29.3716C67.8106 29.3816 67.8359 29.4043 67.87 29.4116C67.9491 29.428 68.0296 29.4363 68.1103 29.4363L68.1115 29.4366H68.1126C68.2543 29.4352 68.3946 29.4079 68.5265 29.3558C68.5627 29.338 68.598 29.3183 68.6322 29.2968C68.7256 29.2516 68.8125 29.1939 68.8906 29.1254C68.9045 29.1127 68.9228 29.1083 68.9364 29.0949C68.961 29.0703 68.9699 29.0377 68.9917 29.0115C69.0519 28.9413 69.1033 28.864 69.1446 28.7812C69.1709 28.7285 69.193 28.6736 69.2105 28.6175C69.2265 28.5829 69.2407 28.5476 69.253 28.5116C71.1697 19.4511 69.3569 11.587 64.2799 6.93381ZM67.3484 25.8574L64.8176 23.3273C62.9721 21.5651 60.0674 21.5651 58.2217 23.3273C57.6449 23.9088 57.2305 24.6314 57.02 25.423L55.7526 24.1555C55.7347 24.1375 55.7105 24.1315 55.6915 24.1149C54.0752 22.5311 51.5533 22.3413 49.7183 23.6655C47.8833 24.9897 47.2686 27.4428 48.2623 29.4758C47.4721 29.6264 46.7345 29.9796 46.1218 30.5009C45.5092 31.0222 45.0423 31.6936 44.7671 32.4495C44.4918 33.2054 44.4176 34.0198 44.5516 34.813C44.6857 35.6062 45.0234 36.351 45.5318 36.9744C44.714 37.1722 43.966 37.59 43.3686 38.1824C41.56 39.9974 41.5508 42.9306 43.3482 44.7567C43.3569 44.766 43.3595 44.7783 43.3686 44.7873L51.5478 52.9666C46.39 57.4917 40.8537 61.5663 34.9999 65.1458C29.1461 61.5663 23.6099 57.4916 18.452 52.9666L26.6312 44.7873C26.6403 44.7783 26.6428 44.766 26.6515 44.7567C28.4489 42.9305 28.4398 39.9974 26.6312 38.1824C26.0333 37.5905 25.2852 37.173 24.4676 36.9748C24.9759 36.3516 25.3136 35.6072 25.4478 34.8143C25.5821 34.0214 25.5082 33.2073 25.2335 32.4515C24.9587 31.6958 24.4924 31.0243 23.8803 30.5028C23.2682 29.9812 22.5312 29.6275 21.7414 29.4762C22.1635 28.6073 22.3049 27.6287 22.1462 26.6758C21.9875 25.7229 21.5365 24.8429 20.8556 24.1577C19.0304 22.4127 16.1612 22.3929 14.3122 24.1126C14.2917 24.1305 14.2655 24.1371 14.2461 24.1566L12.969 25.4338C12.7663 24.6404 12.3561 23.9153 11.7804 23.3329C9.96893 21.5249 7.0393 21.5132 5.21333 23.3065C5.20389 23.3154 5.19145 23.318 5.18229 23.3271L2.65136 25.8572C1.59788 18.5634 3.24051 12.3711 7.29689 8.6541C9.12854 7.06969 11.289 5.9116 13.6225 5.26335C15.956 4.61511 18.4042 4.49288 20.7906 4.90548C26.2768 5.8158 30.9596 9.35591 33.9755 14.8751C34.0852 15.0474 34.2366 15.1892 34.4157 15.2875C34.5947 15.3857 34.7957 15.4372 34.9999 15.4372C35.2041 15.4372 35.4051 15.3857 35.5841 15.2875C35.7632 15.1892 35.9145 15.0474 36.0242 14.8751C39.0403 9.35591 43.723 5.81594 49.2091 4.90548C51.5956 4.493 54.0438 4.61529 56.3772 5.26353C58.7107 5.91177 60.8712 7.0698 62.7029 8.6541C66.7593 12.3713 68.402 18.5636 67.3484 25.8574Z" fill="#393939"/>
</g>
</g>
</svg>
