<svg width="24" height="22" viewBox="0 0 24 22" fill="none" xmlns="http://www.w3.org/2000/svg">
    <path d="M12 21.6648C11.6583 21.6648 11.3289 21.541 11.0722 21.3161C10.1026 20.4683 9.16789 19.6716 8.34317 18.9689L8.33895 18.9652C5.92105 16.9048 3.8331 15.1253 2.38035 13.3725C0.75642 11.4129 0 9.55492 0 7.52519C0 5.55316 0.676217 3.73381 1.90392 2.40209C3.14629 1.05462 4.85099 0.3125 6.70457 0.3125C8.08995 0.3125 9.35867 0.750499 10.4755 1.61422C11.039 2.05015 11.5499 2.58373 12 3.20609C12.4502 2.58373 12.9609 2.05015 13.5247 1.61422C14.6415 0.750499 15.9102 0.3125 17.2956 0.3125C19.149 0.3125 20.8538 1.05462 22.0962 2.40209C23.3239 3.73381 24 5.55316 24 7.52519C24 9.55487 23.2437 11.4129 21.6198 13.3723C20.167 15.1253 18.0792 16.9046 15.6617 18.9649C14.8355 19.6687 13.8993 20.4667 12.9276 21.3165C12.6708 21.5411 12.3412 21.6649 12 21.6648ZM6.70457 1.71837C5.24835 1.71837 3.91059 2.29957 2.93737 3.35496C1.94972 4.42634 1.40568 5.9073 1.40568 7.52519C1.40568 9.23228 2.04014 10.759 3.4627 12.4755C4.83763 14.1346 6.88274 15.8774 9.25067 17.8954L9.25503 17.899C10.0828 18.6045 11.0213 19.4043 11.998 20.2583C12.9805 19.4027 13.9204 18.6016 14.7498 17.895C17.1176 15.877 19.1625 14.1346 20.5374 12.4755C21.9598 10.759 22.5943 9.23228 22.5943 7.52519C22.5943 5.90725 22.0502 4.42629 21.0626 3.35496C20.0896 2.29957 18.7516 1.71837 17.2956 1.71837C16.2288 1.71837 15.2493 2.05751 14.3846 2.72618C13.6139 3.32238 13.077 4.07604 12.7622 4.60338C12.6004 4.87455 12.3155 5.03641 12 5.03641C11.6845 5.03641 11.3996 4.87455 11.2377 4.60338C10.9232 4.07604 10.3863 3.32238 9.61536 2.72618C8.75061 2.05751 7.77116 1.71837 6.70457 1.71837Z" fill="#393939" />
</svg>