<svg width="20" height="19" viewBox="0 0 20 19" fill="none" xmlns="http://www.w3.org/2000/svg">
    <path d="M7.02243 5.12094L9.09788 3.04549V11.7082C9.09788 12.2497 9.45883 12.6106 10.0002 12.6106C10.5417 12.6106 10.9026 12.2497 10.9026 11.7082V3.04549L12.9781 5.12094C13.339 5.48189 13.8804 5.48189 14.2414 5.12094C14.6023 4.75999 14.6023 4.21857 14.2414 3.85763L10.6319 0.248151C10.5417 0.157915 10.4514 0.0676776 10.3612 0.0676776C10.1807 -0.0225592 9.91001 -0.0225592 9.6393 0.0676776C9.54906 0.0676776 9.45883 0.157915 9.36859 0.248151L5.75912 3.85763C5.39817 4.21857 5.39817 4.75999 5.75912 5.12094C6.12006 5.48189 6.66148 5.48189 7.02243 5.12094ZM18.1216 10.8059C17.5801 10.8059 17.2192 11.1668 17.2192 11.7082V15.3177C17.2192 15.8591 16.8582 16.2201 16.3168 16.2201H3.68367C3.14225 16.2201 2.7813 15.8591 2.7813 15.3177V11.7082C2.7813 11.1668 2.42035 10.8059 1.87893 10.8059C1.33751 10.8059 0.976562 11.1668 0.976562 11.7082V15.3177C0.976562 16.8517 2.14964 18.0248 3.68367 18.0248H16.3168C17.8509 18.0248 19.0239 16.8517 19.0239 15.3177V11.7082C19.0239 11.1668 18.663 10.8059 18.1216 10.8059Z" fill="#393939" />
</svg>