<svg width="31" height="31" viewBox="0 0 31 31" fill="none" xmlns="http://www.w3.org/2000/svg">
<path id="Vector" fill-rule="evenodd" clip-rule="evenodd" d="M15.5 0C15.758 0.000161218 16.0126 0.0582808 16.2452 0.170065C16.4777 0.281849 16.6821 0.444442 16.8433 0.645833L23.7322 9.25694C23.882 9.43238 23.9951 9.63612 24.0646 9.85608C24.1342 10.076 24.1588 10.3077 24.1371 10.5374C24.1154 10.7671 24.0477 10.99 23.9382 11.1931C23.8287 11.3961 23.6795 11.575 23.4994 11.7193C23.3194 11.8635 23.1122 11.9702 22.8902 12.0328C22.6682 12.0954 22.4358 12.1129 22.207 12.084C21.9781 12.0551 21.7573 11.9805 21.5578 11.8647C21.3583 11.7489 21.1841 11.5942 21.0456 11.4097L17.2222 6.63056V18.9444C17.2222 19.4012 17.0408 19.8393 16.7178 20.1622C16.3948 20.4852 15.9568 20.6667 15.5 20.6667C15.0432 20.6667 14.6052 20.4852 14.2822 20.1622C13.9592 19.8393 13.7778 19.4012 13.7778 18.9444V6.63056L9.95444 11.4114C9.81588 11.5959 9.64168 11.7506 9.44217 11.8664C9.24266 11.9823 9.02192 12.0568 8.79304 12.0857C8.56416 12.1146 8.33182 12.0972 8.10979 12.0345C7.88777 11.9719 7.6806 11.8653 7.50057 11.721C7.32054 11.5768 7.17133 11.3978 7.06179 11.1948C6.95225 10.9918 6.88462 10.7688 6.86291 10.5391C6.84119 10.3095 6.86584 10.0778 6.93539 9.8578C7.00494 9.63785 7.11797 9.4341 7.26778 9.25867L14.1567 0.647555C14.3177 0.445849 14.5221 0.282928 14.7546 0.170841C14.9871 0.0587542 15.2419 0.00036787 15.5 0ZM10.3333 18.9444V17.2222H3.44444C2.53092 17.2222 1.65481 17.5851 1.00885 18.2311C0.362896 18.877 0 19.7531 0 20.6667V27.5556C0 28.4691 0.362896 29.3452 1.00885 29.9911C1.65481 30.6371 2.53092 31 3.44444 31H27.5556C28.4691 31 29.3452 30.6371 29.9911 29.9911C30.6371 29.3452 31 28.4691 31 27.5556V20.6667C31 19.7531 30.6371 18.877 29.9911 18.2311C29.3452 17.5851 28.4691 17.2222 27.5556 17.2222H20.6667V18.9444C20.6667 20.3147 20.1223 21.6289 19.1534 22.5978C18.1844 23.5668 16.8703 24.1111 15.5 24.1111C14.1297 24.1111 12.8156 23.5668 11.8466 22.5978C10.8777 21.6289 10.3333 20.3147 10.3333 18.9444ZM24.1111 22.3889C23.6543 22.3889 23.2163 22.5703 22.8933 22.8933C22.5703 23.2163 22.3889 23.6543 22.3889 24.1111C22.3889 24.5679 22.5703 25.0059 22.8933 25.3289C23.2163 25.6519 23.6543 25.8333 24.1111 25.8333H24.1283C24.5851 25.8333 25.0231 25.6519 25.3461 25.3289C25.6691 25.0059 25.8506 24.5679 25.8506 24.1111C25.8506 23.6543 25.6691 23.2163 25.3461 22.8933C25.0231 22.5703 24.5851 22.3889 24.1283 22.3889H24.1111Z" fill="#393939"/>
</svg>
