<svg width="1680" height="583" viewBox="0 0 1680 583" fill="none" xmlns="http://www.w3.org/2000/svg">
<path d="M-10 24.9533C-10 12.4248 -1.08781 2.26848 9.90594 2.26848H1663.09C1674.09 2.26848 1683 12.4248 1683 24.9533V560.315C1683 572.844 1674.09 583 1663.09 583H9.90594C-1.08781 583 -10 572.844 -10 560.315V24.9533Z"/>
<path d="M-4.02822 22.6848C-4.02822 10.1563 4.88398 0 15.8777 0H1661.1C1672.1 0 1681.01 10.1563 1681.01 22.6848V560.315C1681.01 572.844 1672.1 583 1661.1 583H15.8777C4.88396 583 -4.02822 572.844 -4.02822 560.315V22.6848Z" fill="url(#paint0_linear_558_3683)"/>
<defs>
<linearGradient id="paint0_linear_558_3683" x1="-10" y1="291.5" x2="1683" y2="291.5" gradientUnits="userSpaceOnUse">
<stop stop-color="#393939"/>
<stop offset="1" stop-color="#181818"/>
</linearGradient>
</defs>
</svg>
